#!OML:ASF H:\BabyWalks\Project 1\Capture day 1\Session 1\baby.ASF
:FULLY-SPECIFIED
:DEGREES
584
root 25.2846 17.8937 1.32629 -174.9 82.4989 -181.638
lowerback 22.018 -0.965155 4.90187
upperback 7.24844 0.551643 2.52096
thorax -4.36462 0.531514 -0.239796
lowerneck -1.17591 -1.12534 6.20559
upperneck -2.69013 -1.66367 -10.2308
head -0.814116 -0.788587 -4.49602
rclavicle 4.77083e-015 1.59028e-014
rhumerus -45.4364 2.17676 -76.8483
rradius 47.5875
rwrist -3.87289
rhand -13.4697 -18.3689
rfingers 7.12502
rthumb 12.6404 -47.9664
lclavicle 4.77083e-015 1.59028e-014
lhumerus -46.5632 -4.861 78.7508
lradius 69.702
lwrist 6.33497
lhand -0.711871 9.07304
lfingers 7.12502
lthumb 24.9084 37.47
rfemur -14.8202 6.20661 22.9321
rtibia 25.2617
rfoot -16.2606 -6.01061
rtoes 10.1422
lfemur -22.4803 4.98407 -12.1857
ltibia 51.6352
lfoot -17.0668 -6.0786
ltoes -16.131
585
root 25.3457 17.8835 1.30985 -174.57 82.7531 -181.098
lowerback 22.0399 -0.948075 4.93906
upperback 7.32357 0.5836 2.50227
thorax -4.29227 0.552008 -0.288849
lowerneck -1.20503 -1.05888 6.26054
upperneck -2.61832 -1.57209 -10.2796
head -0.778195 -0.74495 -4.52546
rclavicle 1.27222e-014 -3.02153e-014
rhumerus -45.3695 2.22508 -76.8316
rradius 47.6426
rwrist -3.94181
rhand -13.7244 -18.3539
rfingers 7.12502
rthumb 12.3949 -47.9665
lclavicle 1.27222e-014 -3.02153e-014
lhumerus -46.6297 -4.82922 78.7441
lradius 69.4508
lwrist 6.21817
lhand -0.465496 9.17875
lfingers 7.12502
lthumb 25.1444 37.5428
rfemur -14.3912 6.39228 23.023
rtibia 25.2938
rfoot -16.4666 -5.95973
rtoes 10.0716
lfemur -23.1362 5.27489 -12.4559
ltibia 50.6547
lfoot -17.4349 -5.38493
ltoes -15.9321
586
root 25.4079 17.873 1.29273 -174.075 83.0127 -180.394
lowerback 22.0567 -0.929912 4.98097
upperback 7.39614 0.617654 2.48711
thorax -4.21994 0.573453 -0.337226
lowerneck -1.23153 -0.993779 6.3172
upperneck -2.53074 -1.48132 -10.323
head -0.737528 -0.702021 -4.5532
rclavicle -2.38542e-015 4.77083e-015
rhumerus -45.3012 2.30004 -76.8267
rradius 47.6978
rwrist -3.99764
rhand -13.9092 -18.3142
rfingers 7.12502
rthumb 12.2167 -47.9374
lclavicle -2.38542e-015 4.77083e-015
lhumerus -46.7002 -4.78309 78.7387
lradius 69.1719
lwrist 6.08796
lhand -0.25357 9.28669
lfingers 7.12502
lthumb 25.3475 37.6221
rfemur -13.9521 6.58724 23.1285
rtibia 25.307
rfoot -16.6629 -5.90719
rtoes 10.0201
lfemur -23.7545 5.51677 -12.6959
ltibia 49.5467
lfoot -17.7398 -4.75509
ltoes -15.7616
587
root 25.4717 17.8626 1.27485 -173.382 83.2807 -179.489
lowerback 22.0671 -0.909448 5.02984
upperback 7.46776 0.655806 2.47617
thorax -4.14507 0.596959 -0.385942
lowerneck -1.25694 -0.931079 6.37033
upperneck -2.42601 -1.39261 -10.3613
head -0.691466 -0.660379 -4.57826
rclavicle 2.38542e-015 2.14687e-014
rhumerus -45.2308 2.39673 -76.8292
rradius 47.7512
rwrist -4.04593
rhand -14.0281 -18.2492
rfingers 7.12502
rthumb 12.1021 -47.8792
lclavicle 2.38542e-015 2.14687e-014
lhumerus -46.771 -4.72743 78.7356
lradius 68.8617
lwrist 5.94506
lhand -0.0729804 9.38574
lfingers 7.12502
lthumb 25.5205 37.6965
rfemur -13.4885 6.78344 23.2524
rtibia 25.2839
rfoot -16.8403 -5.84918
rtoes 9.92925
lfemur -24.3241 5.70632 -12.8988
ltibia 48.3123
lfoot -17.9832 -4.18596
ltoes -15.6417
588
root 25.5367 17.8528 1.25614 -172.451 83.5618 -178.347
lowerback 22.072 -0.884861 5.08727
upperback 7.53603 0.700566 2.46836
thorax -4.07059 0.62358 -0.437697
lowerneck -1.28463 -0.869392 6.41782
upperneck -2.29908 -1.30387 -10.3924
head -0.637545 -0.619124 -4.59945
rclavicle -1.27222e-014 -4.37326e-014
rhumerus -45.1599 2.50138 -76.8354
rradius 47.8029
rwrist -4.0802
rhand -14.0715 -18.1667
rfingers 7.12502
rthumb 12.0602 -47.7992
lclavicle -1.27222e-014 -4.37326e-014
lhumerus -46.8409 -4.66029 78.7343
lradius 68.5186
lwrist 5.78136
lhand 0.0798064 9.47164
lfingers 7.12502
lthumb 25.6668 37.7614
rfemur -12.9984 6.98343 23.3936
rtibia 25.2081
rfoot -16.9903 -5.78123
rtoes 9.82114
lfemur -24.8421 5.83913 -13.0583
ltibia 46.9524
lfoot -18.1534 -3.67231
ltoes -15.5537
589
root 25.603 17.8441 1.23649 -171.185 83.8596 -176.874
lowerback 22.0696 -0.855585 5.15875
upperback 7.60072 0.753605 2.46399
thorax -3.99565 0.654168 -0.495647
lowerneck -1.30807 -0.810598 6.46473
upperneck -2.15831 -1.21798 -10.419
head -0.580037 -0.579431 -4.61884
rclavicle 1.35174e-014 5.48646e-014
rhumerus -45.0829 2.61654 -76.8452
rradius 47.8487
rwrist -4.10839
rhand -14.0499 -18.0745
rfingers 7.12502
rthumb 12.081 -47.7058
lclavicle 1.35174e-014 5.48646e-014
lhumerus -46.9074 -4.58531 78.7334
lradius 68.1392
lwrist 5.59951
lhand 0.210462 9.53906
lfingers 7.12502
lthumb 25.7919 37.8107
rfemur -12.4796 7.18653 23.5568
rtibia 25.0653
rfoot -17.1016 -5.69852
rtoes 9.69982
lfemur -25.3066 5.90834 -13.1617
ltibia 45.472
lfoot -18.2368 -3.20683
ltoes -15.518
590
root 25.6709 17.8369 1.21557 -169.56 84.1763 -175.045
lowerback 22.0543 -0.821271 5.24311
upperback 7.6644 0.814454 2.46106
thorax -3.9145 0.688705 -0.561053
lowerneck -1.33197 -0.752176 6.50626
upperneck -2.00135 -1.13151 -10.4365
head -0.516938 -0.539708 -4.63374
rclavicle 1.03368e-014 5.00937e-014
rhumerus -44.9961 2.72824 -76.8539
rradius 47.8859
rwrist -4.1247
rhand -13.9699 -17.9736
rfingers 7.12502
rthumb 12.1582 -47.6003
lclavicle 1.03368e-014 5.00937e-014
lhumerus -46.9696 -4.50338 78.733
lradius 67.7292
lwrist 5.40094
lhand 0.323788 9.59387
lfingers 7.12502
lthumb 25.9005 37.8497
rfemur -11.9266 7.38861 23.7355
rtibia 24.8475
rfoot -17.1738 -5.58999
rtoes 9.59242
lfemur -25.7068 5.9 -13.2054
ltibia 43.8764
lfoot -18.2229 -2.77945
ltoes -15.4776
591
root 25.7402 17.8312 1.19324 -167.465 84.5138 -172.754
lowerback 22.0286 -0.781603 5.3432
upperback 7.72482 0.884165 2.45949
thorax -3.83065 0.727578 -0.635868
lowerneck -1.35263 -0.694023 6.54614
upperneck -1.83344 -1.04449 -10.4569
head -0.450776 -0.499685 -4.64938
rclavicle 9.54166e-015 -2.38542e-014
rhumerus -44.8974 2.83737 -76.8604
rradius 47.9131
rwrist -4.13378
rhand -13.8438 -17.8682
rfingers 7.12502
rthumb 12.2797 -47.4876
lclavicle 9.54166e-015 -2.38542e-014
lhumerus -47.0269 -4.40977 78.7327
lradius 67.2854
lwrist 5.18446
lhand 0.425437 9.63264
lfingers 7.12502
lthumb 25.9978 37.8742
rfemur -11.3433 7.58671 23.93
rtibia 24.5524
rfoot -17.2045 -5.44951
rtoes 9.50116
lfemur -26.0426 5.80436 -13.1798
ltibia 42.1772
lfoot -18.116 -2.36764
ltoes -15.436
592
root 25.8105 17.8267 1.16941 -164.758 84.8697 -169.856
lowerback 21.9944 -0.737948 5.45795
upperback 7.78098 0.96075 2.45833
thorax -3.74628 0.769745 -0.719955
lowerneck -1.36684 -0.632367 6.59243
upperneck -1.65481 -0.951907 -10.4797
head -0.381758 -0.456883 -4.66718
rclavicle -1.19271e-015 -2.3059e-014
rhumerus -44.7857 2.94479 -76.8685
rradius 47.9283
rwrist -4.13405
rhand -13.677 -17.7649
rfingers 7.12502
rthumb 12.4405 -47.3747
lclavicle -1.19271e-015 -2.3059e-014
lhumerus -47.0851 -4.30239 78.7269
lradius 66.8152
lwrist 4.95511
lhand 0.521428 9.67059
lfingers 7.12502
lthumb 26.0897 37.8986
rfemur -10.7325 7.7746 24.1423
rtibia 24.1845
rfoot -17.1901 -5.27313
rtoes 9.38439
lfemur -26.3128 5.60133 -13.071
ltibia 40.3884
lfoot -17.9184 -1.95601
ltoes -15.3898
593
root 25.8821 17.8229 1.1439 -161.283 85.2425 -166.198
lowerback 21.9483 -0.689155 5.58639
upperback 7.83514 1.04507 2.45685
thorax -3.6569 0.815825 -0.813644
lowerneck -1.37753 -0.56528 6.63621
upperneck -1.46754 -0.851219 -10.5011
head -0.309684 -0.409993 -4.68392
rclavicle 1.94809e-014 4.37326e-014
rhumerus -44.657 3.0427 -76.8726
rradius 47.9324
rwrist -4.12079
rhand -13.4779 -17.6683
rfingers 7.12502
rthumb 12.6325 -47.2663
lclavicle 1.94809e-014 4.37326e-014
lhumerus -47.1441 -4.18188 78.7172
lradius 66.3215
lwrist 4.72013
lhand 0.608611 9.69985
lfingers 7.12502
lthumb 26.1732 37.9155
rfemur -10.0992 7.95027 24.3679
rtibia 23.7518
rfoot -17.1353 -5.05621
rtoes 9.25839
lfemur -26.5144 5.28257 -12.8747
ltibia 38.5321
lfoot -17.6448 -1.51113
ltoes -15.3433
594
root 25.9545 17.8198 1.11663 -156.844 85.6292 -161.583
lowerback 21.8949 -0.634124 5.7204
upperback 7.88635 1.13704 2.45361
thorax -3.56596 0.865586 -0.913862
lowerneck -1.38076 -0.489907 6.68946
upperneck -1.27702 -0.738893 -10.5329
head -0.236781 -0.357076 -4.70643
rclavicle 1.47101e-014 -3.97569e-015
rhumerus -44.5093 3.13551 -76.8746
rradius 47.9221
rwrist -4.09502
rhand -13.2589 -17.5744
rfingers 7.12502
rthumb 12.8436 -47.1592
lclavicle 1.47101e-014 -3.97569e-015
lhumerus -47.207 -4.04978 78.7036
lradius 65.8081
lwrist 4.48726
lhand 0.690577 9.73292
lfingers 7.12502
lthumb 26.2517 37.937
rfemur -9.45254 8.1073 24.6003
rtibia 23.2688
rfoot -17.0433 -4.79543
rtoes 9.07098
lfemur -26.6496 4.84079 -12.5904
ltibia 36.6331
lfoot -17.3052 -1.00259
ltoes -15.3123
595
root 26.0283 17.8169 1.08736 -151.062 86.0244 -155.627
lowerback 21.8348 -0.570166 5.86178
upperback 7.93787 1.24044 2.44677
thorax -3.46985 0.921185 -1.0244
lowerneck -1.37368 -0.407812 6.7436
upperneck -1.08735 -0.617025 -10.567
head -0.16496 -0.299041 -4.72994
rclavicle 2.38542e-015 7.95139e-015
rhumerus -44.343 3.22039 -76.8748
rradius 47.8973
rwrist -4.05813
rhand -13.0275 -17.4889
rfingers 7.12502
rthumb 13.0667 -47.0595
lclavicle 2.38542e-015 7.95139e-015
lhumerus -47.2729 -3.91096 78.6875
lradius 65.2764
lwrist 4.26276
lhand 0.765922 9.76656
lfingers 7.12502
lthumb 26.3238 37.9598
rfemur -8.79197 8.24296 24.8375
rtibia 22.7506
rfoot -16.9232 -4.48196
rtoes 8.78667
lfemur -26.7118 4.27658 -12.214
ltibia 34.7221
lfoot -16.9212 -0.397782
ltoes -15.3186
